<mxfile host="app.diagrams.net" modified="2023-01-19T09:14:41.107Z" agent="5.0 (Windows NT 10.0; Win64; x64) AppleWebKit/537.36 (KHTML, like Gecko) Chrome/109.0.0.0 Safari/537.36 Edg/109.0.1518.55" etag="cKD6FhKD8sVbdvSPRQZp" version="20.8.5" type="github">
  <diagram id="2BpuVQ9tPCK1gl49anqS" name="Page-1">
    <mxGraphModel dx="435" dy="564" grid="0" gridSize="10" guides="1" tooltips="1" connect="1" arrows="1" fold="1" page="0" pageScale="1" pageWidth="1169" pageHeight="827" background="#ffffff" math="0" shadow="0">
      <root>
        <mxCell id="0" />
        <mxCell id="1" parent="0" />
        <mxCell id="6LsR8xv4Y1xSTp8uO4PH-28" value="Q9" style="ellipse;whiteSpace=wrap;html=1;fontSize=14;" parent="1" vertex="1">
          <mxGeometry x="470" y="250" width="80" height="40" as="geometry" />
        </mxCell>
        <mxCell id="6LsR8xv4Y1xSTp8uO4PH-29" value="Q10" style="ellipse;whiteSpace=wrap;html=1;fontSize=14;" parent="1" vertex="1">
          <mxGeometry x="570" y="290" width="80" height="40" as="geometry" />
        </mxCell>
        <mxCell id="6LsR8xv4Y1xSTp8uO4PH-30" value="Q13" style="ellipse;whiteSpace=wrap;html=1;fontSize=14;" parent="1" vertex="1">
          <mxGeometry x="250" y="190" width="80" height="40" as="geometry" />
        </mxCell>
        <mxCell id="6LsR8xv4Y1xSTp8uO4PH-31" value="Q14" style="ellipse;whiteSpace=wrap;html=1;fontSize=14;" parent="1" vertex="1">
          <mxGeometry x="350" y="190" width="80" height="40" as="geometry" />
        </mxCell>
        <mxCell id="6LsR8xv4Y1xSTp8uO4PH-32" value="Q17" style="ellipse;whiteSpace=wrap;html=1;fontSize=14;" parent="1" vertex="1">
          <mxGeometry x="587" y="240" width="80" height="40" as="geometry" />
        </mxCell>
        <mxCell id="6LsR8xv4Y1xSTp8uO4PH-33" value="Q18" style="ellipse;whiteSpace=wrap;html=1;fontSize=14;" parent="1" vertex="1">
          <mxGeometry x="160" y="170" width="80" height="40" as="geometry" />
        </mxCell>
        <mxCell id="6LsR8xv4Y1xSTp8uO4PH-35" value="Q16" style="ellipse;whiteSpace=wrap;html=1;fontSize=14;" parent="1" vertex="1">
          <mxGeometry x="540" y="200" width="80" height="40" as="geometry" />
        </mxCell>
        <mxCell id="6LsR8xv4Y1xSTp8uO4PH-36" value="Q11" style="ellipse;whiteSpace=wrap;html=1;fontSize=14;" parent="1" vertex="1">
          <mxGeometry x="570" y="400" width="80" height="40" as="geometry" />
        </mxCell>
        <mxCell id="6LsR8xv4Y1xSTp8uO4PH-38" value="Q19" style="ellipse;whiteSpace=wrap;html=1;fontSize=14;" parent="1" vertex="1">
          <mxGeometry x="290" y="130" width="80" height="40" as="geometry" />
        </mxCell>
        <mxCell id="6LsR8xv4Y1xSTp8uO4PH-39" value="Q20" style="ellipse;whiteSpace=wrap;html=1;fontSize=14;" parent="1" vertex="1">
          <mxGeometry x="400" y="120" width="80" height="40" as="geometry" />
        </mxCell>
        <mxCell id="6LsR8xv4Y1xSTp8uO4PH-1" value="GMDS" style="rounded=0;whiteSpace=wrap;html=1;fontSize=14;" parent="1" vertex="1">
          <mxGeometry x="833" y="495" width="80" height="30" as="geometry" />
        </mxCell>
        <mxCell id="6LsR8xv4Y1xSTp8uO4PH-3" value="Name" style="ellipse;whiteSpace=wrap;html=1;fontSize=14;" parent="1" vertex="1">
          <mxGeometry x="833" y="385" width="80" height="40" as="geometry" />
        </mxCell>
        <mxCell id="6LsR8xv4Y1xSTp8uO4PH-46" value="" style="endArrow=none;html=1;rounded=0;exitX=0.25;exitY=0;exitDx=0;exitDy=0;entryX=0.5;entryY=1;entryDx=0;entryDy=0;fontSize=14;" parent="1" source="6LsR8xv4Y1xSTp8uO4PH-1" target="6LsR8xv4Y1xSTp8uO4PH-2" edge="1">
          <mxGeometry width="50" height="50" relative="1" as="geometry">
            <mxPoint x="973" y="645" as="sourcePoint" />
            <mxPoint x="1023" y="595" as="targetPoint" />
          </mxGeometry>
        </mxCell>
        <mxCell id="6LsR8xv4Y1xSTp8uO4PH-47" value="" style="endArrow=none;html=1;rounded=0;exitX=0.5;exitY=0;exitDx=0;exitDy=0;fontSize=14;entryX=0.5;entryY=1;entryDx=0;entryDy=0;" parent="1" source="6LsR8xv4Y1xSTp8uO4PH-1" target="6LsR8xv4Y1xSTp8uO4PH-3" edge="1">
          <mxGeometry width="50" height="50" relative="1" as="geometry">
            <mxPoint x="863" y="505.0000000000001" as="sourcePoint" />
            <mxPoint x="873" y="425" as="targetPoint" />
          </mxGeometry>
        </mxCell>
        <mxCell id="6LsR8xv4Y1xSTp8uO4PH-48" value="" style="endArrow=none;html=1;rounded=0;entryX=0.295;entryY=0.981;entryDx=0;entryDy=0;entryPerimeter=0;exitX=0.75;exitY=0;exitDx=0;exitDy=0;fontSize=14;" parent="1" source="6LsR8xv4Y1xSTp8uO4PH-1" target="6LsR8xv4Y1xSTp8uO4PH-4" edge="1">
          <mxGeometry width="50" height="50" relative="1" as="geometry">
            <mxPoint x="903" y="475" as="sourcePoint" />
            <mxPoint x="883" y="435.0000000000001" as="targetPoint" />
          </mxGeometry>
        </mxCell>
        <mxCell id="6LsR8xv4Y1xSTp8uO4PH-4" value="Department" style="ellipse;whiteSpace=wrap;html=1;fontSize=14;" parent="1" vertex="1">
          <mxGeometry x="923" y="385" width="80" height="40" as="geometry" />
        </mxCell>
        <mxCell id="6LsR8xv4Y1xSTp8uO4PH-2" value="BadgeID" style="ellipse;whiteSpace=wrap;html=1;fontStyle=4;fontSize=14;" parent="1" vertex="1">
          <mxGeometry x="743" y="385" width="80" height="40" as="geometry" />
        </mxCell>
        <mxCell id="6LsR8xv4Y1xSTp8uO4PH-51" value="" style="endArrow=none;html=1;rounded=0;exitX=0.193;exitY=0.057;exitDx=0;exitDy=0;entryX=0.595;entryY=1.007;entryDx=0;entryDy=0;exitPerimeter=0;entryPerimeter=0;fontSize=14;" parent="1" source="6LsR8xv4Y1xSTp8uO4PH-10" target="6LsR8xv4Y1xSTp8uO4PH-18" edge="1">
          <mxGeometry width="50" height="50" relative="1" as="geometry">
            <mxPoint x="310" y="510" as="sourcePoint" />
            <mxPoint x="310" y="440" as="targetPoint" />
          </mxGeometry>
        </mxCell>
        <mxCell id="6LsR8xv4Y1xSTp8uO4PH-52" value="" style="endArrow=none;html=1;rounded=0;exitX=0.25;exitY=0;exitDx=0;exitDy=0;entryX=0.709;entryY=0.954;entryDx=0;entryDy=0;entryPerimeter=0;fontSize=14;" parent="1" source="6LsR8xv4Y1xSTp8uO4PH-10" target="6LsR8xv4Y1xSTp8uO4PH-20" edge="1">
          <mxGeometry width="50" height="50" relative="1" as="geometry">
            <mxPoint x="330" y="512.5" as="sourcePoint" />
            <mxPoint x="304" y="460" as="targetPoint" />
          </mxGeometry>
        </mxCell>
        <mxCell id="6LsR8xv4Y1xSTp8uO4PH-53" value="" style="endArrow=none;html=1;rounded=0;exitX=0.5;exitY=0;exitDx=0;exitDy=0;entryX=0.384;entryY=0.987;entryDx=0;entryDy=0;entryPerimeter=0;fontSize=14;" parent="1" source="6LsR8xv4Y1xSTp8uO4PH-10" target="6LsR8xv4Y1xSTp8uO4PH-21" edge="1">
          <mxGeometry width="50" height="50" relative="1" as="geometry">
            <mxPoint x="360" y="505" as="sourcePoint" />
            <mxPoint x="170" y="340" as="targetPoint" />
          </mxGeometry>
        </mxCell>
        <mxCell id="6LsR8xv4Y1xSTp8uO4PH-54" value="" style="endArrow=none;html=1;rounded=0;exitX=0.5;exitY=0;exitDx=0;exitDy=0;entryX=0.5;entryY=1;entryDx=0;entryDy=0;fontSize=14;" parent="1" source="6LsR8xv4Y1xSTp8uO4PH-10" target="6LsR8xv4Y1xSTp8uO4PH-40" edge="1">
          <mxGeometry width="50" height="50" relative="1" as="geometry">
            <mxPoint x="390" y="505" as="sourcePoint" />
            <mxPoint x="269.52" y="355.76" as="targetPoint" />
          </mxGeometry>
        </mxCell>
        <mxCell id="6LsR8xv4Y1xSTp8uO4PH-55" value="" style="endArrow=none;html=1;rounded=0;exitX=0.5;exitY=0;exitDx=0;exitDy=0;entryX=0.5;entryY=1;entryDx=0;entryDy=0;fontSize=14;" parent="1" source="6LsR8xv4Y1xSTp8uO4PH-10" target="6LsR8xv4Y1xSTp8uO4PH-33" edge="1">
          <mxGeometry width="50" height="50" relative="1" as="geometry">
            <mxPoint x="390" y="505" as="sourcePoint" />
            <mxPoint x="210" y="270" as="targetPoint" />
          </mxGeometry>
        </mxCell>
        <mxCell id="6LsR8xv4Y1xSTp8uO4PH-56" value="" style="endArrow=none;html=1;rounded=0;entryX=0.5;entryY=1;entryDx=0;entryDy=0;exitX=0.679;exitY=0.017;exitDx=0;exitDy=0;exitPerimeter=0;fontSize=14;" parent="1" source="6LsR8xv4Y1xSTp8uO4PH-10" target="6LsR8xv4Y1xSTp8uO4PH-17" edge="1">
          <mxGeometry width="50" height="50" relative="1" as="geometry">
            <mxPoint x="400" y="510" as="sourcePoint" />
            <mxPoint x="220" y="280" as="targetPoint" />
          </mxGeometry>
        </mxCell>
        <mxCell id="6LsR8xv4Y1xSTp8uO4PH-57" value="" style="endArrow=none;html=1;rounded=0;entryX=0.5;entryY=1;entryDx=0;entryDy=0;exitX=0.644;exitY=0.005;exitDx=0;exitDy=0;exitPerimeter=0;fontSize=14;" parent="1" source="6LsR8xv4Y1xSTp8uO4PH-10" target="6LsR8xv4Y1xSTp8uO4PH-24" edge="1">
          <mxGeometry width="50" height="50" relative="1" as="geometry">
            <mxPoint x="409.4399999999998" y="504.49000000000024" as="sourcePoint" />
            <mxPoint x="340" y="400" as="targetPoint" />
          </mxGeometry>
        </mxCell>
        <mxCell id="6LsR8xv4Y1xSTp8uO4PH-58" value="" style="endArrow=none;html=1;rounded=0;entryX=0.5;entryY=1;entryDx=0;entryDy=0;fontSize=14;" parent="1" source="6LsR8xv4Y1xSTp8uO4PH-10" target="6LsR8xv4Y1xSTp8uO4PH-30" edge="1">
          <mxGeometry width="50" height="50" relative="1" as="geometry">
            <mxPoint x="430" y="450" as="sourcePoint" />
            <mxPoint x="304" y="300" as="targetPoint" />
          </mxGeometry>
        </mxCell>
        <mxCell id="6LsR8xv4Y1xSTp8uO4PH-59" value="" style="endArrow=none;html=1;rounded=0;entryX=0.593;entryY=0.989;entryDx=0;entryDy=0;exitX=0.645;exitY=-0.038;exitDx=0;exitDy=0;exitPerimeter=0;entryPerimeter=0;fontSize=14;" parent="1" source="6LsR8xv4Y1xSTp8uO4PH-10" target="6LsR8xv4Y1xSTp8uO4PH-22" edge="1">
          <mxGeometry width="50" height="50" relative="1" as="geometry">
            <mxPoint x="407.28" y="505.15" as="sourcePoint" />
            <mxPoint x="303.9999999999999" y="300" as="targetPoint" />
          </mxGeometry>
        </mxCell>
        <mxCell id="6LsR8xv4Y1xSTp8uO4PH-60" value="" style="endArrow=none;html=1;rounded=0;entryX=0.5;entryY=1;entryDx=0;entryDy=0;exitX=0.639;exitY=0.033;exitDx=0;exitDy=0;exitPerimeter=0;fontSize=14;" parent="1" source="6LsR8xv4Y1xSTp8uO4PH-10" target="6LsR8xv4Y1xSTp8uO4PH-11" edge="1">
          <mxGeometry width="50" height="50" relative="1" as="geometry">
            <mxPoint x="417.28" y="515.15" as="sourcePoint" />
            <mxPoint x="313.9999999999999" y="310" as="targetPoint" />
          </mxGeometry>
        </mxCell>
        <mxCell id="6LsR8xv4Y1xSTp8uO4PH-61" value="" style="endArrow=none;html=1;rounded=0;entryX=0.414;entryY=1.043;entryDx=0;entryDy=0;exitX=0.651;exitY=0.033;exitDx=0;exitDy=0;exitPerimeter=0;entryPerimeter=0;fontSize=14;" parent="1" source="6LsR8xv4Y1xSTp8uO4PH-10" target="6LsR8xv4Y1xSTp8uO4PH-19" edge="1">
          <mxGeometry width="50" height="50" relative="1" as="geometry">
            <mxPoint x="406.68000000000006" y="505.99" as="sourcePoint" />
            <mxPoint x="420" y="430" as="targetPoint" />
          </mxGeometry>
        </mxCell>
        <mxCell id="6LsR8xv4Y1xSTp8uO4PH-62" value="" style="endArrow=none;html=1;rounded=0;entryX=0.5;entryY=1;entryDx=0;entryDy=0;exitX=0.645;exitY=0.033;exitDx=0;exitDy=0;exitPerimeter=0;fontSize=14;" parent="1" source="6LsR8xv4Y1xSTp8uO4PH-10" target="6LsR8xv4Y1xSTp8uO4PH-25" edge="1">
          <mxGeometry width="50" height="50" relative="1" as="geometry">
            <mxPoint x="408.1199999999999" y="505.99" as="sourcePoint" />
            <mxPoint x="423.1199999999999" y="381.7199999999999" as="targetPoint" />
          </mxGeometry>
        </mxCell>
        <mxCell id="6LsR8xv4Y1xSTp8uO4PH-63" value="" style="endArrow=none;html=1;rounded=0;entryX=0.5;entryY=1;entryDx=0;entryDy=0;exitX=0.651;exitY=-0.062;exitDx=0;exitDy=0;exitPerimeter=0;fontSize=14;" parent="1" source="6LsR8xv4Y1xSTp8uO4PH-10" target="6LsR8xv4Y1xSTp8uO4PH-31" edge="1">
          <mxGeometry width="50" height="50" relative="1" as="geometry">
            <mxPoint x="418.1199999999999" y="515.99" as="sourcePoint" />
            <mxPoint x="433.1199999999999" y="391.7199999999999" as="targetPoint" />
          </mxGeometry>
        </mxCell>
        <mxCell id="6LsR8xv4Y1xSTp8uO4PH-64" value="" style="endArrow=none;html=1;rounded=0;entryX=0.5;entryY=1;entryDx=0;entryDy=0;exitX=0.75;exitY=0;exitDx=0;exitDy=0;fontSize=14;" parent="1" source="6LsR8xv4Y1xSTp8uO4PH-10" target="6LsR8xv4Y1xSTp8uO4PH-38" edge="1">
          <mxGeometry width="50" height="50" relative="1" as="geometry">
            <mxPoint x="428.1199999999999" y="525.99" as="sourcePoint" />
            <mxPoint x="443.1199999999999" y="401.7199999999999" as="targetPoint" />
          </mxGeometry>
        </mxCell>
        <mxCell id="6LsR8xv4Y1xSTp8uO4PH-65" value="" style="endArrow=none;html=1;rounded=0;entryX=0.441;entryY=1.061;entryDx=0;entryDy=0;exitX=0.717;exitY=0.033;exitDx=0;exitDy=0;exitPerimeter=0;entryPerimeter=0;fontSize=14;" parent="1" source="6LsR8xv4Y1xSTp8uO4PH-10" target="6LsR8xv4Y1xSTp8uO4PH-23" edge="1">
          <mxGeometry width="50" height="50" relative="1" as="geometry">
            <mxPoint x="438.1199999999999" y="535.99" as="sourcePoint" />
            <mxPoint x="453.1199999999999" y="411.7199999999999" as="targetPoint" />
          </mxGeometry>
        </mxCell>
        <mxCell id="6LsR8xv4Y1xSTp8uO4PH-66" value="" style="endArrow=none;html=1;rounded=0;exitX=0.865;exitY=0.033;exitDx=0;exitDy=0;exitPerimeter=0;fontSize=14;" parent="1" source="6LsR8xv4Y1xSTp8uO4PH-10" target="6LsR8xv4Y1xSTp8uO4PH-39" edge="1">
          <mxGeometry width="50" height="50" relative="1" as="geometry">
            <mxPoint x="448.1199999999999" y="545.99" as="sourcePoint" />
            <mxPoint x="440" y="160" as="targetPoint" />
          </mxGeometry>
        </mxCell>
        <mxCell id="6LsR8xv4Y1xSTp8uO4PH-67" value="" style="endArrow=none;html=1;rounded=0;exitX=0.854;exitY=0.057;exitDx=0;exitDy=0;exitPerimeter=0;fontSize=14;" parent="1" source="6LsR8xv4Y1xSTp8uO4PH-10" edge="1">
          <mxGeometry width="50" height="50" relative="1" as="geometry">
            <mxPoint x="458.1199999999999" y="555.99" as="sourcePoint" />
            <mxPoint x="470" y="230" as="targetPoint" />
          </mxGeometry>
        </mxCell>
        <mxCell id="6LsR8xv4Y1xSTp8uO4PH-68" value="" style="endArrow=none;html=1;rounded=0;exitX=0.931;exitY=-0.014;exitDx=0;exitDy=0;exitPerimeter=0;fontSize=14;" parent="1" source="6LsR8xv4Y1xSTp8uO4PH-10" target="6LsR8xv4Y1xSTp8uO4PH-28" edge="1">
          <mxGeometry width="50" height="50" relative="1" as="geometry">
            <mxPoint x="468.1199999999999" y="565.99" as="sourcePoint" />
            <mxPoint x="483.1199999999999" y="441.7199999999999" as="targetPoint" />
          </mxGeometry>
        </mxCell>
        <mxCell id="6LsR8xv4Y1xSTp8uO4PH-69" value="" style="endArrow=none;html=1;rounded=0;entryX=0.343;entryY=1.007;entryDx=0;entryDy=0;exitX=0.937;exitY=0.01;exitDx=0;exitDy=0;exitPerimeter=0;entryPerimeter=0;fontSize=14;" parent="1" source="6LsR8xv4Y1xSTp8uO4PH-10" target="6LsR8xv4Y1xSTp8uO4PH-26" edge="1">
          <mxGeometry width="50" height="50" relative="1" as="geometry">
            <mxPoint x="478.1199999999999" y="575.99" as="sourcePoint" />
            <mxPoint x="493.1199999999999" y="451.7199999999999" as="targetPoint" />
          </mxGeometry>
        </mxCell>
        <mxCell id="6LsR8xv4Y1xSTp8uO4PH-70" value="" style="endArrow=none;html=1;rounded=0;exitX=0.889;exitY=0.033;exitDx=0;exitDy=0;exitPerimeter=0;entryX=0;entryY=1;entryDx=0;entryDy=0;fontSize=14;" parent="1" source="6LsR8xv4Y1xSTp8uO4PH-10" target="6LsR8xv4Y1xSTp8uO4PH-12" edge="1">
          <mxGeometry width="50" height="50" relative="1" as="geometry">
            <mxPoint x="488.1199999999999" y="585.99" as="sourcePoint" />
            <mxPoint x="480" y="384" as="targetPoint" />
          </mxGeometry>
        </mxCell>
        <mxCell id="6LsR8xv4Y1xSTp8uO4PH-71" value="" style="endArrow=none;html=1;rounded=0;entryX=0.5;entryY=1;entryDx=0;entryDy=0;exitX=0.961;exitY=-0.014;exitDx=0;exitDy=0;exitPerimeter=0;fontSize=14;" parent="1" source="6LsR8xv4Y1xSTp8uO4PH-10" target="6LsR8xv4Y1xSTp8uO4PH-13" edge="1">
          <mxGeometry width="50" height="50" relative="1" as="geometry">
            <mxPoint x="498.1199999999999" y="595.99" as="sourcePoint" />
            <mxPoint x="513.1199999999999" y="471.7199999999999" as="targetPoint" />
          </mxGeometry>
        </mxCell>
        <mxCell id="6LsR8xv4Y1xSTp8uO4PH-72" value="" style="endArrow=none;html=1;rounded=0;entryX=0;entryY=0.5;entryDx=0;entryDy=0;exitX=1;exitY=0;exitDx=0;exitDy=0;fontSize=14;" parent="1" source="6LsR8xv4Y1xSTp8uO4PH-10" target="6LsR8xv4Y1xSTp8uO4PH-36" edge="1">
          <mxGeometry width="50" height="50" relative="1" as="geometry">
            <mxPoint x="508.1199999999999" y="605.99" as="sourcePoint" />
            <mxPoint x="523.1199999999999" y="481.7199999999999" as="targetPoint" />
          </mxGeometry>
        </mxCell>
        <mxCell id="6LsR8xv4Y1xSTp8uO4PH-73" value="" style="endArrow=none;html=1;rounded=0;exitX=0.961;exitY=-0.038;exitDx=0;exitDy=0;exitPerimeter=0;fontSize=14;" parent="1" source="6LsR8xv4Y1xSTp8uO4PH-10" target="6LsR8xv4Y1xSTp8uO4PH-27" edge="1">
          <mxGeometry width="50" height="50" relative="1" as="geometry">
            <mxPoint x="518.1199999999999" y="615.99" as="sourcePoint" />
            <mxPoint x="533.1199999999999" y="491.7199999999999" as="targetPoint" />
          </mxGeometry>
        </mxCell>
        <mxCell id="6LsR8xv4Y1xSTp8uO4PH-74" value="" style="endArrow=none;html=1;rounded=0;entryX=0.45;entryY=1.043;entryDx=0;entryDy=0;exitX=1;exitY=0;exitDx=0;exitDy=0;entryPerimeter=0;fontSize=14;" parent="1" source="6LsR8xv4Y1xSTp8uO4PH-10" target="6LsR8xv4Y1xSTp8uO4PH-35" edge="1">
          <mxGeometry width="50" height="50" relative="1" as="geometry">
            <mxPoint x="528.1199999999999" y="625.99" as="sourcePoint" />
            <mxPoint x="543.1199999999999" y="501.7199999999999" as="targetPoint" />
          </mxGeometry>
        </mxCell>
        <mxCell id="6LsR8xv4Y1xSTp8uO4PH-75" value="" style="endArrow=none;html=1;rounded=0;entryX=0.25;entryY=1;entryDx=0;entryDy=0;exitX=0.937;exitY=-0.038;exitDx=0;exitDy=0;entryPerimeter=0;exitPerimeter=0;fontSize=14;" parent="1" source="6LsR8xv4Y1xSTp8uO4PH-10" target="6LsR8xv4Y1xSTp8uO4PH-29" edge="1">
          <mxGeometry width="50" height="50" relative="1" as="geometry">
            <mxPoint x="450" y="505" as="sourcePoint" />
            <mxPoint x="580.0000000000027" y="430" as="targetPoint" />
          </mxGeometry>
        </mxCell>
        <mxCell id="6LsR8xv4Y1xSTp8uO4PH-76" value="" style="endArrow=none;html=1;rounded=0;entryX=0;entryY=0.5;entryDx=0;entryDy=0;exitX=0.925;exitY=0.033;exitDx=0;exitDy=0;exitPerimeter=0;fontSize=14;" parent="1" source="6LsR8xv4Y1xSTp8uO4PH-10" target="6LsR8xv4Y1xSTp8uO4PH-32" edge="1">
          <mxGeometry width="50" height="50" relative="1" as="geometry">
            <mxPoint x="460" y="515" as="sourcePoint" />
            <mxPoint x="590.0000000000027" y="440" as="targetPoint" />
          </mxGeometry>
        </mxCell>
        <mxCell id="6LsR8xv4Y1xSTp8uO4PH-18" value="Dropdown1" style="ellipse;whiteSpace=wrap;html=1;fontSize=14;" parent="1" vertex="1">
          <mxGeometry x="254" y="410" width="80" height="40" as="geometry" />
        </mxCell>
        <mxCell id="6LsR8xv4Y1xSTp8uO4PH-20" value="Q1" style="ellipse;whiteSpace=wrap;html=1;fontSize=14;" parent="1" vertex="1">
          <mxGeometry x="200" y="360" width="80" height="40" as="geometry" />
        </mxCell>
        <mxCell id="6LsR8xv4Y1xSTp8uO4PH-21" value="Q2" style="ellipse;whiteSpace=wrap;html=1;fontSize=14;" parent="1" vertex="1">
          <mxGeometry x="210" y="300" width="80" height="40" as="geometry" />
        </mxCell>
        <mxCell id="6LsR8xv4Y1xSTp8uO4PH-40" value="Q12" style="ellipse;whiteSpace=wrap;html=1;fontSize=14;" parent="1" vertex="1">
          <mxGeometry x="160" y="220" width="80" height="40" as="geometry" />
        </mxCell>
        <mxCell id="6LsR8xv4Y1xSTp8uO4PH-24" value="Q7" style="ellipse;whiteSpace=wrap;html=1;fontSize=14;" parent="1" vertex="1">
          <mxGeometry x="254" y="250" width="80" height="40" as="geometry" />
        </mxCell>
        <mxCell id="6LsR8xv4Y1xSTp8uO4PH-22" value="Q3" style="ellipse;whiteSpace=wrap;html=1;fontSize=14;" parent="1" vertex="1">
          <mxGeometry x="300" y="300" width="80" height="40" as="geometry" />
        </mxCell>
        <mxCell id="6LsR8xv4Y1xSTp8uO4PH-17" value="Id" style="ellipse;whiteSpace=wrap;html=1;fontSize=14;" parent="1" vertex="1">
          <mxGeometry x="290" y="350" width="80" height="40" as="geometry" />
        </mxCell>
        <mxCell id="6LsR8xv4Y1xSTp8uO4PH-25" value="Q8" style="ellipse;whiteSpace=wrap;html=1;fontSize=14;" parent="1" vertex="1">
          <mxGeometry x="340" y="250" width="80" height="40" as="geometry" />
        </mxCell>
        <mxCell id="6LsR8xv4Y1xSTp8uO4PH-19" value="Dropdown2" style="ellipse;whiteSpace=wrap;html=1;fontSize=14;" parent="1" vertex="1">
          <mxGeometry x="380" y="330" width="80" height="40" as="geometry" />
        </mxCell>
        <mxCell id="6LsR8xv4Y1xSTp8uO4PH-11" value="Badge" style="ellipse;whiteSpace=wrap;html=1;fontStyle=4;fontSize=14;" parent="1" vertex="1">
          <mxGeometry x="370" y="380" width="80" height="40" as="geometry" />
        </mxCell>
        <mxCell id="6LsR8xv4Y1xSTp8uO4PH-23" value="Q4" style="ellipse;whiteSpace=wrap;html=1;fontSize=14;" parent="1" vertex="1">
          <mxGeometry x="400" y="280" width="80" height="40" as="geometry" />
        </mxCell>
        <mxCell id="6LsR8xv4Y1xSTp8uO4PH-12" value="Name" style="ellipse;whiteSpace=wrap;html=1;fontSize=14;" parent="1" vertex="1">
          <mxGeometry x="460" y="350" width="80" height="40" as="geometry" />
        </mxCell>
        <mxCell id="6LsR8xv4Y1xSTp8uO4PH-13" value="Department" style="ellipse;whiteSpace=wrap;html=1;fontSize=14;" parent="1" vertex="1">
          <mxGeometry x="470" y="410" width="80" height="40" as="geometry" />
        </mxCell>
        <mxCell id="6LsR8xv4Y1xSTp8uO4PH-26" value="Q5" style="ellipse;whiteSpace=wrap;html=1;fontSize=14;" parent="1" vertex="1">
          <mxGeometry x="480" y="300" width="80" height="40" as="geometry" />
        </mxCell>
        <mxCell id="6LsR8xv4Y1xSTp8uO4PH-27" value="Q6" style="ellipse;whiteSpace=wrap;html=1;fontSize=14;" parent="1" vertex="1">
          <mxGeometry x="550" y="340" width="80" height="40" as="geometry" />
        </mxCell>
        <mxCell id="6LsR8xv4Y1xSTp8uO4PH-10" value="FormQuestionnaire" style="rounded=0;whiteSpace=wrap;html=1;fontSize=14;" parent="1" vertex="1">
          <mxGeometry x="342" y="495" width="128" height="30" as="geometry" />
        </mxCell>
        <mxCell id="6LsR8xv4Y1xSTp8uO4PH-77" value="User" style="rounded=0;whiteSpace=wrap;html=1;fontSize=14;" parent="1" vertex="1">
          <mxGeometry x="366" y="752" width="80" height="30" as="geometry" />
        </mxCell>
        <mxCell id="6LsR8xv4Y1xSTp8uO4PH-78" value="Email" style="ellipse;whiteSpace=wrap;html=1;fontSize=14;" parent="1" vertex="1">
          <mxGeometry x="266" y="680" width="80" height="40" as="geometry" />
        </mxCell>
        <mxCell id="6LsR8xv4Y1xSTp8uO4PH-79" value="" style="endArrow=none;html=1;rounded=0;exitX=0;exitY=0.5;exitDx=0;exitDy=0;entryX=0.5;entryY=1;entryDx=0;entryDy=0;fontSize=14;" parent="1" source="6LsR8xv4Y1xSTp8uO4PH-77" target="6LsR8xv4Y1xSTp8uO4PH-83" edge="1">
          <mxGeometry width="50" height="50" relative="1" as="geometry">
            <mxPoint x="486" y="910" as="sourcePoint" />
            <mxPoint x="536" y="860" as="targetPoint" />
          </mxGeometry>
        </mxCell>
        <mxCell id="6LsR8xv4Y1xSTp8uO4PH-81" value="" style="endArrow=none;html=1;rounded=0;entryX=0;entryY=1;entryDx=0;entryDy=0;fontSize=14;exitX=0.75;exitY=0;exitDx=0;exitDy=0;" parent="1" source="6LsR8xv4Y1xSTp8uO4PH-77" target="6LsR8xv4Y1xSTp8uO4PH-82" edge="1">
          <mxGeometry width="50" height="50" relative="1" as="geometry">
            <mxPoint x="451" y="745" as="sourcePoint" />
            <mxPoint x="396" y="700.0000000000001" as="targetPoint" />
          </mxGeometry>
        </mxCell>
        <mxCell id="6LsR8xv4Y1xSTp8uO4PH-82" value="WindowsAccount" style="ellipse;whiteSpace=wrap;html=1;fontSize=14;" parent="1" vertex="1">
          <mxGeometry x="446" y="670" width="132" height="40" as="geometry" />
        </mxCell>
        <mxCell id="6LsR8xv4Y1xSTp8uO4PH-83" value="Id" style="ellipse;whiteSpace=wrap;html=1;fontStyle=4;fontSize=14;" parent="1" vertex="1">
          <mxGeometry x="210" y="723" width="80" height="40" as="geometry" />
        </mxCell>
        <mxCell id="6LsR8xv4Y1xSTp8uO4PH-84" value="" style="endArrow=none;html=1;rounded=0;entryX=0.5;entryY=1;entryDx=0;entryDy=0;fontSize=14;" parent="1" source="6LsR8xv4Y1xSTp8uO4PH-77" target="6LsR8xv4Y1xSTp8uO4PH-85" edge="1">
          <mxGeometry width="50" height="50" relative="1" as="geometry">
            <mxPoint x="416" y="760" as="sourcePoint" />
            <mxPoint x="496" y="910" as="targetPoint" />
          </mxGeometry>
        </mxCell>
        <mxCell id="6LsR8xv4Y1xSTp8uO4PH-85" value="HakUser" style="ellipse;whiteSpace=wrap;html=1;fontSize=14;" parent="1" vertex="1">
          <mxGeometry x="498" y="726" width="80" height="40" as="geometry" />
        </mxCell>
        <mxCell id="6LsR8xv4Y1xSTp8uO4PH-87" value="1" style="endArrow=none;html=1;rounded=0;entryX=0;entryY=0.5;entryDx=0;entryDy=0;exitX=1;exitY=0.5;exitDx=0;exitDy=0;fontSize=14;" parent="1" source="6LsR8xv4Y1xSTp8uO4PH-10" target="6LsR8xv4Y1xSTp8uO4PH-88" edge="1">
          <mxGeometry width="50" height="50" relative="1" as="geometry">
            <mxPoint x="470" y="515" as="sourcePoint" />
            <mxPoint x="600" y="505" as="targetPoint" />
          </mxGeometry>
        </mxCell>
        <mxCell id="6LsR8xv4Y1xSTp8uO4PH-88" value="menarikdata" style="rhombus;whiteSpace=wrap;html=1;fontSize=14;" parent="1" vertex="1">
          <mxGeometry x="587" y="489.5" width="137" height="41" as="geometry" />
        </mxCell>
        <mxCell id="6LsR8xv4Y1xSTp8uO4PH-90" value="mengisiform" style="rhombus;whiteSpace=wrap;html=1;fontSize=14;" parent="1" vertex="1">
          <mxGeometry x="339.25" y="606" width="133.5" height="49" as="geometry" />
        </mxCell>
        <mxCell id="6LsR8xv4Y1xSTp8uO4PH-99" value="1" style="endArrow=none;html=1;rounded=0;entryX=0.5;entryY=1;entryDx=0;entryDy=0;fontSize=14;" parent="1" source="6LsR8xv4Y1xSTp8uO4PH-90" target="6LsR8xv4Y1xSTp8uO4PH-10" edge="1">
          <mxGeometry width="50" height="50" relative="1" as="geometry">
            <mxPoint x="420" y="760" as="sourcePoint" />
            <mxPoint x="420" y="640" as="targetPoint" />
          </mxGeometry>
        </mxCell>
        <mxCell id="6LsR8xv4Y1xSTp8uO4PH-34" value="Q15" style="ellipse;whiteSpace=wrap;html=1;fontSize=14;" parent="1" vertex="1">
          <mxGeometry x="440" y="200" width="80" height="40" as="geometry" />
        </mxCell>
        <mxCell id="vxe9Pf3EhHQiJG2KMXCm-1" value="Q9" style="ellipse;whiteSpace=wrap;html=1;" parent="1" vertex="1">
          <mxGeometry x="455" y="1192" width="80" height="40" as="geometry" />
        </mxCell>
        <mxCell id="vxe9Pf3EhHQiJG2KMXCm-2" value="Q10" style="ellipse;whiteSpace=wrap;html=1;" parent="1" vertex="1">
          <mxGeometry x="555" y="1232" width="80" height="40" as="geometry" />
        </mxCell>
        <mxCell id="vxe9Pf3EhHQiJG2KMXCm-3" value="Q13" style="ellipse;whiteSpace=wrap;html=1;" parent="1" vertex="1">
          <mxGeometry x="235" y="1132" width="80" height="40" as="geometry" />
        </mxCell>
        <mxCell id="vxe9Pf3EhHQiJG2KMXCm-4" value="Q14" style="ellipse;whiteSpace=wrap;html=1;" parent="1" vertex="1">
          <mxGeometry x="335" y="1132" width="80" height="40" as="geometry" />
        </mxCell>
        <mxCell id="vxe9Pf3EhHQiJG2KMXCm-5" value="Q17" style="ellipse;whiteSpace=wrap;html=1;" parent="1" vertex="1">
          <mxGeometry x="572" y="1182" width="80" height="40" as="geometry" />
        </mxCell>
        <mxCell id="vxe9Pf3EhHQiJG2KMXCm-6" value="Q18" style="ellipse;whiteSpace=wrap;html=1;" parent="1" vertex="1">
          <mxGeometry x="145" y="1112" width="80" height="40" as="geometry" />
        </mxCell>
        <mxCell id="vxe9Pf3EhHQiJG2KMXCm-7" value="Q16" style="ellipse;whiteSpace=wrap;html=1;" parent="1" vertex="1">
          <mxGeometry x="525" y="1142" width="80" height="40" as="geometry" />
        </mxCell>
        <mxCell id="vxe9Pf3EhHQiJG2KMXCm-8" value="Q11" style="ellipse;whiteSpace=wrap;html=1;" parent="1" vertex="1">
          <mxGeometry x="555" y="1342" width="80" height="40" as="geometry" />
        </mxCell>
        <mxCell id="vxe9Pf3EhHQiJG2KMXCm-9" value="Q19" style="ellipse;whiteSpace=wrap;html=1;" parent="1" vertex="1">
          <mxGeometry x="275" y="1072" width="80" height="40" as="geometry" />
        </mxCell>
        <mxCell id="vxe9Pf3EhHQiJG2KMXCm-10" value="Q20" style="ellipse;whiteSpace=wrap;html=1;" parent="1" vertex="1">
          <mxGeometry x="385" y="1062" width="80" height="40" as="geometry" />
        </mxCell>
        <mxCell id="vxe9Pf3EhHQiJG2KMXCm-11" value="GMDS" style="rounded=0;whiteSpace=wrap;html=1;" parent="1" vertex="1">
          <mxGeometry x="765" y="1437" width="80" height="30" as="geometry" />
        </mxCell>
        <mxCell id="vxe9Pf3EhHQiJG2KMXCm-12" value="Name" style="ellipse;whiteSpace=wrap;html=1;" parent="1" vertex="1">
          <mxGeometry x="765" y="1327" width="80" height="40" as="geometry" />
        </mxCell>
        <mxCell id="vxe9Pf3EhHQiJG2KMXCm-13" value="" style="endArrow=none;html=1;rounded=0;exitX=0.25;exitY=0;exitDx=0;exitDy=0;entryX=0.5;entryY=1;entryDx=0;entryDy=0;" parent="1" source="vxe9Pf3EhHQiJG2KMXCm-11" target="vxe9Pf3EhHQiJG2KMXCm-17" edge="1">
          <mxGeometry width="50" height="50" relative="1" as="geometry">
            <mxPoint x="905" y="1587" as="sourcePoint" />
            <mxPoint x="955" y="1537" as="targetPoint" />
          </mxGeometry>
        </mxCell>
        <mxCell id="vxe9Pf3EhHQiJG2KMXCm-14" value="" style="endArrow=none;html=1;rounded=0;exitX=0.5;exitY=0;exitDx=0;exitDy=0;" parent="1" source="vxe9Pf3EhHQiJG2KMXCm-11" edge="1">
          <mxGeometry width="50" height="50" relative="1" as="geometry">
            <mxPoint x="795" y="1447" as="sourcePoint" />
            <mxPoint x="805" y="1367" as="targetPoint" />
          </mxGeometry>
        </mxCell>
        <mxCell id="vxe9Pf3EhHQiJG2KMXCm-15" value="" style="endArrow=none;html=1;rounded=0;entryX=0.295;entryY=0.981;entryDx=0;entryDy=0;entryPerimeter=0;exitX=0.75;exitY=0;exitDx=0;exitDy=0;" parent="1" source="vxe9Pf3EhHQiJG2KMXCm-11" target="vxe9Pf3EhHQiJG2KMXCm-16" edge="1">
          <mxGeometry width="50" height="50" relative="1" as="geometry">
            <mxPoint x="835" y="1417" as="sourcePoint" />
            <mxPoint x="815" y="1377" as="targetPoint" />
          </mxGeometry>
        </mxCell>
        <mxCell id="vxe9Pf3EhHQiJG2KMXCm-16" value="Department" style="ellipse;whiteSpace=wrap;html=1;" parent="1" vertex="1">
          <mxGeometry x="855" y="1327" width="80" height="40" as="geometry" />
        </mxCell>
        <mxCell id="vxe9Pf3EhHQiJG2KMXCm-17" value="BadgeID" style="ellipse;whiteSpace=wrap;html=1;" parent="1" vertex="1">
          <mxGeometry x="675" y="1327" width="80" height="40" as="geometry" />
        </mxCell>
        <mxCell id="vxe9Pf3EhHQiJG2KMXCm-18" value="" style="endArrow=none;html=1;rounded=0;exitX=0.193;exitY=0.057;exitDx=0;exitDy=0;entryX=0.595;entryY=1.007;entryDx=0;entryDy=0;exitPerimeter=0;entryPerimeter=0;" parent="1" source="vxe9Pf3EhHQiJG2KMXCm-59" target="vxe9Pf3EhHQiJG2KMXCm-44" edge="1">
          <mxGeometry width="50" height="50" relative="1" as="geometry">
            <mxPoint x="295" y="1452" as="sourcePoint" />
            <mxPoint x="295" y="1382" as="targetPoint" />
          </mxGeometry>
        </mxCell>
        <mxCell id="vxe9Pf3EhHQiJG2KMXCm-19" value="" style="endArrow=none;html=1;rounded=0;exitX=0.25;exitY=0;exitDx=0;exitDy=0;entryX=0.709;entryY=0.954;entryDx=0;entryDy=0;entryPerimeter=0;" parent="1" source="vxe9Pf3EhHQiJG2KMXCm-59" target="vxe9Pf3EhHQiJG2KMXCm-45" edge="1">
          <mxGeometry width="50" height="50" relative="1" as="geometry">
            <mxPoint x="315" y="1454.5" as="sourcePoint" />
            <mxPoint x="289" y="1402" as="targetPoint" />
          </mxGeometry>
        </mxCell>
        <mxCell id="vxe9Pf3EhHQiJG2KMXCm-20" value="" style="endArrow=none;html=1;rounded=0;exitX=0.5;exitY=0;exitDx=0;exitDy=0;entryX=0.384;entryY=0.987;entryDx=0;entryDy=0;entryPerimeter=0;" parent="1" source="vxe9Pf3EhHQiJG2KMXCm-59" target="vxe9Pf3EhHQiJG2KMXCm-46" edge="1">
          <mxGeometry width="50" height="50" relative="1" as="geometry">
            <mxPoint x="345" y="1447" as="sourcePoint" />
            <mxPoint x="155" y="1282" as="targetPoint" />
          </mxGeometry>
        </mxCell>
        <mxCell id="vxe9Pf3EhHQiJG2KMXCm-21" value="" style="endArrow=none;html=1;rounded=0;exitX=0.5;exitY=0;exitDx=0;exitDy=0;entryX=0.5;entryY=1;entryDx=0;entryDy=0;" parent="1" source="vxe9Pf3EhHQiJG2KMXCm-59" target="vxe9Pf3EhHQiJG2KMXCm-47" edge="1">
          <mxGeometry width="50" height="50" relative="1" as="geometry">
            <mxPoint x="375" y="1447" as="sourcePoint" />
            <mxPoint x="254.51999999999998" y="1297.76" as="targetPoint" />
          </mxGeometry>
        </mxCell>
        <mxCell id="vxe9Pf3EhHQiJG2KMXCm-22" value="" style="endArrow=none;html=1;rounded=0;exitX=0.5;exitY=0;exitDx=0;exitDy=0;entryX=0.5;entryY=1;entryDx=0;entryDy=0;" parent="1" source="vxe9Pf3EhHQiJG2KMXCm-59" target="vxe9Pf3EhHQiJG2KMXCm-6" edge="1">
          <mxGeometry width="50" height="50" relative="1" as="geometry">
            <mxPoint x="375" y="1447" as="sourcePoint" />
            <mxPoint x="195" y="1212" as="targetPoint" />
          </mxGeometry>
        </mxCell>
        <mxCell id="vxe9Pf3EhHQiJG2KMXCm-23" value="" style="endArrow=none;html=1;rounded=0;entryX=0.5;entryY=1;entryDx=0;entryDy=0;exitX=0.679;exitY=0.017;exitDx=0;exitDy=0;exitPerimeter=0;" parent="1" source="vxe9Pf3EhHQiJG2KMXCm-59" target="vxe9Pf3EhHQiJG2KMXCm-50" edge="1">
          <mxGeometry width="50" height="50" relative="1" as="geometry">
            <mxPoint x="385" y="1452" as="sourcePoint" />
            <mxPoint x="205" y="1222" as="targetPoint" />
          </mxGeometry>
        </mxCell>
        <mxCell id="vxe9Pf3EhHQiJG2KMXCm-24" value="" style="endArrow=none;html=1;rounded=0;entryX=0.5;entryY=1;entryDx=0;entryDy=0;exitX=0.644;exitY=0.005;exitDx=0;exitDy=0;exitPerimeter=0;" parent="1" source="vxe9Pf3EhHQiJG2KMXCm-59" target="vxe9Pf3EhHQiJG2KMXCm-48" edge="1">
          <mxGeometry width="50" height="50" relative="1" as="geometry">
            <mxPoint x="394.4399999999998" y="1446.4900000000002" as="sourcePoint" />
            <mxPoint x="325" y="1342" as="targetPoint" />
          </mxGeometry>
        </mxCell>
        <mxCell id="vxe9Pf3EhHQiJG2KMXCm-25" value="" style="endArrow=none;html=1;rounded=0;entryX=0.5;entryY=1;entryDx=0;entryDy=0;" parent="1" source="vxe9Pf3EhHQiJG2KMXCm-59" target="vxe9Pf3EhHQiJG2KMXCm-3" edge="1">
          <mxGeometry width="50" height="50" relative="1" as="geometry">
            <mxPoint x="415" y="1392" as="sourcePoint" />
            <mxPoint x="289" y="1242" as="targetPoint" />
          </mxGeometry>
        </mxCell>
        <mxCell id="vxe9Pf3EhHQiJG2KMXCm-26" value="" style="endArrow=none;html=1;rounded=0;entryX=0.593;entryY=0.989;entryDx=0;entryDy=0;exitX=0.645;exitY=-0.038;exitDx=0;exitDy=0;exitPerimeter=0;entryPerimeter=0;" parent="1" source="vxe9Pf3EhHQiJG2KMXCm-59" target="vxe9Pf3EhHQiJG2KMXCm-49" edge="1">
          <mxGeometry width="50" height="50" relative="1" as="geometry">
            <mxPoint x="392.28" y="1447.15" as="sourcePoint" />
            <mxPoint x="288.9999999999999" y="1242" as="targetPoint" />
          </mxGeometry>
        </mxCell>
        <mxCell id="vxe9Pf3EhHQiJG2KMXCm-27" value="" style="endArrow=none;html=1;rounded=0;entryX=0.5;entryY=1;entryDx=0;entryDy=0;exitX=0.639;exitY=0.033;exitDx=0;exitDy=0;exitPerimeter=0;" parent="1" source="vxe9Pf3EhHQiJG2KMXCm-59" target="vxe9Pf3EhHQiJG2KMXCm-53" edge="1">
          <mxGeometry width="50" height="50" relative="1" as="geometry">
            <mxPoint x="402.28" y="1457.15" as="sourcePoint" />
            <mxPoint x="298.9999999999999" y="1252" as="targetPoint" />
          </mxGeometry>
        </mxCell>
        <mxCell id="vxe9Pf3EhHQiJG2KMXCm-28" value="" style="endArrow=none;html=1;rounded=0;entryX=0.414;entryY=1.043;entryDx=0;entryDy=0;exitX=0.651;exitY=0.033;exitDx=0;exitDy=0;exitPerimeter=0;entryPerimeter=0;" parent="1" source="vxe9Pf3EhHQiJG2KMXCm-59" target="vxe9Pf3EhHQiJG2KMXCm-52" edge="1">
          <mxGeometry width="50" height="50" relative="1" as="geometry">
            <mxPoint x="391.68000000000006" y="1447.99" as="sourcePoint" />
            <mxPoint x="405" y="1372" as="targetPoint" />
          </mxGeometry>
        </mxCell>
        <mxCell id="vxe9Pf3EhHQiJG2KMXCm-29" value="" style="endArrow=none;html=1;rounded=0;entryX=0.5;entryY=1;entryDx=0;entryDy=0;exitX=0.645;exitY=0.033;exitDx=0;exitDy=0;exitPerimeter=0;" parent="1" source="vxe9Pf3EhHQiJG2KMXCm-59" target="vxe9Pf3EhHQiJG2KMXCm-51" edge="1">
          <mxGeometry width="50" height="50" relative="1" as="geometry">
            <mxPoint x="393.1199999999999" y="1447.99" as="sourcePoint" />
            <mxPoint x="408.1199999999999" y="1323.7199999999998" as="targetPoint" />
          </mxGeometry>
        </mxCell>
        <mxCell id="vxe9Pf3EhHQiJG2KMXCm-30" value="" style="endArrow=none;html=1;rounded=0;entryX=0.5;entryY=1;entryDx=0;entryDy=0;exitX=0.651;exitY=-0.062;exitDx=0;exitDy=0;exitPerimeter=0;" parent="1" source="vxe9Pf3EhHQiJG2KMXCm-59" target="vxe9Pf3EhHQiJG2KMXCm-4" edge="1">
          <mxGeometry width="50" height="50" relative="1" as="geometry">
            <mxPoint x="403.1199999999999" y="1457.99" as="sourcePoint" />
            <mxPoint x="418.1199999999999" y="1333.7199999999998" as="targetPoint" />
          </mxGeometry>
        </mxCell>
        <mxCell id="vxe9Pf3EhHQiJG2KMXCm-31" value="" style="endArrow=none;html=1;rounded=0;entryX=0.5;entryY=1;entryDx=0;entryDy=0;exitX=0.75;exitY=0;exitDx=0;exitDy=0;" parent="1" source="vxe9Pf3EhHQiJG2KMXCm-59" target="vxe9Pf3EhHQiJG2KMXCm-9" edge="1">
          <mxGeometry width="50" height="50" relative="1" as="geometry">
            <mxPoint x="413.1199999999999" y="1467.99" as="sourcePoint" />
            <mxPoint x="428.1199999999999" y="1343.7199999999998" as="targetPoint" />
          </mxGeometry>
        </mxCell>
        <mxCell id="vxe9Pf3EhHQiJG2KMXCm-32" value="" style="endArrow=none;html=1;rounded=0;entryX=0.441;entryY=1.061;entryDx=0;entryDy=0;exitX=0.717;exitY=0.033;exitDx=0;exitDy=0;exitPerimeter=0;entryPerimeter=0;" parent="1" source="vxe9Pf3EhHQiJG2KMXCm-59" target="vxe9Pf3EhHQiJG2KMXCm-54" edge="1">
          <mxGeometry width="50" height="50" relative="1" as="geometry">
            <mxPoint x="423.1199999999999" y="1477.99" as="sourcePoint" />
            <mxPoint x="438.1199999999999" y="1353.7199999999998" as="targetPoint" />
          </mxGeometry>
        </mxCell>
        <mxCell id="vxe9Pf3EhHQiJG2KMXCm-33" value="" style="endArrow=none;html=1;rounded=0;exitX=0.865;exitY=0.033;exitDx=0;exitDy=0;exitPerimeter=0;" parent="1" source="vxe9Pf3EhHQiJG2KMXCm-59" target="vxe9Pf3EhHQiJG2KMXCm-10" edge="1">
          <mxGeometry width="50" height="50" relative="1" as="geometry">
            <mxPoint x="433.1199999999999" y="1487.99" as="sourcePoint" />
            <mxPoint x="425" y="1102" as="targetPoint" />
          </mxGeometry>
        </mxCell>
        <mxCell id="vxe9Pf3EhHQiJG2KMXCm-34" value="" style="endArrow=none;html=1;rounded=0;exitX=0.854;exitY=0.057;exitDx=0;exitDy=0;exitPerimeter=0;" parent="1" source="vxe9Pf3EhHQiJG2KMXCm-59" edge="1">
          <mxGeometry width="50" height="50" relative="1" as="geometry">
            <mxPoint x="443.1199999999999" y="1497.99" as="sourcePoint" />
            <mxPoint x="455" y="1172" as="targetPoint" />
          </mxGeometry>
        </mxCell>
        <mxCell id="vxe9Pf3EhHQiJG2KMXCm-35" value="" style="endArrow=none;html=1;rounded=0;exitX=0.931;exitY=-0.014;exitDx=0;exitDy=0;exitPerimeter=0;" parent="1" source="vxe9Pf3EhHQiJG2KMXCm-59" target="vxe9Pf3EhHQiJG2KMXCm-1" edge="1">
          <mxGeometry width="50" height="50" relative="1" as="geometry">
            <mxPoint x="453.1199999999999" y="1507.99" as="sourcePoint" />
            <mxPoint x="468.1199999999999" y="1383.7199999999998" as="targetPoint" />
          </mxGeometry>
        </mxCell>
        <mxCell id="vxe9Pf3EhHQiJG2KMXCm-36" value="" style="endArrow=none;html=1;rounded=0;entryX=0.343;entryY=1.007;entryDx=0;entryDy=0;exitX=0.937;exitY=0.01;exitDx=0;exitDy=0;exitPerimeter=0;entryPerimeter=0;" parent="1" source="vxe9Pf3EhHQiJG2KMXCm-59" target="vxe9Pf3EhHQiJG2KMXCm-57" edge="1">
          <mxGeometry width="50" height="50" relative="1" as="geometry">
            <mxPoint x="463.1199999999999" y="1517.99" as="sourcePoint" />
            <mxPoint x="478.1199999999999" y="1393.7199999999998" as="targetPoint" />
          </mxGeometry>
        </mxCell>
        <mxCell id="vxe9Pf3EhHQiJG2KMXCm-37" value="" style="endArrow=none;html=1;rounded=0;exitX=0.889;exitY=0.033;exitDx=0;exitDy=0;exitPerimeter=0;entryX=0;entryY=1;entryDx=0;entryDy=0;" parent="1" source="vxe9Pf3EhHQiJG2KMXCm-59" target="vxe9Pf3EhHQiJG2KMXCm-55" edge="1">
          <mxGeometry width="50" height="50" relative="1" as="geometry">
            <mxPoint x="473.1199999999999" y="1527.99" as="sourcePoint" />
            <mxPoint x="465" y="1326" as="targetPoint" />
          </mxGeometry>
        </mxCell>
        <mxCell id="vxe9Pf3EhHQiJG2KMXCm-38" value="" style="endArrow=none;html=1;rounded=0;entryX=0.5;entryY=1;entryDx=0;entryDy=0;exitX=0.961;exitY=-0.014;exitDx=0;exitDy=0;exitPerimeter=0;" parent="1" source="vxe9Pf3EhHQiJG2KMXCm-59" target="vxe9Pf3EhHQiJG2KMXCm-56" edge="1">
          <mxGeometry width="50" height="50" relative="1" as="geometry">
            <mxPoint x="483.1199999999999" y="1537.99" as="sourcePoint" />
            <mxPoint x="498.1199999999999" y="1413.7199999999998" as="targetPoint" />
          </mxGeometry>
        </mxCell>
        <mxCell id="vxe9Pf3EhHQiJG2KMXCm-39" value="" style="endArrow=none;html=1;rounded=0;entryX=0;entryY=0.5;entryDx=0;entryDy=0;exitX=1;exitY=0;exitDx=0;exitDy=0;" parent="1" source="vxe9Pf3EhHQiJG2KMXCm-59" target="vxe9Pf3EhHQiJG2KMXCm-8" edge="1">
          <mxGeometry width="50" height="50" relative="1" as="geometry">
            <mxPoint x="493.1199999999999" y="1547.99" as="sourcePoint" />
            <mxPoint x="508.1199999999999" y="1423.7199999999998" as="targetPoint" />
          </mxGeometry>
        </mxCell>
        <mxCell id="vxe9Pf3EhHQiJG2KMXCm-40" value="" style="endArrow=none;html=1;rounded=0;exitX=0.961;exitY=-0.038;exitDx=0;exitDy=0;exitPerimeter=0;" parent="1" source="vxe9Pf3EhHQiJG2KMXCm-59" target="vxe9Pf3EhHQiJG2KMXCm-58" edge="1">
          <mxGeometry width="50" height="50" relative="1" as="geometry">
            <mxPoint x="503.1199999999999" y="1557.99" as="sourcePoint" />
            <mxPoint x="518.1199999999999" y="1433.7199999999998" as="targetPoint" />
          </mxGeometry>
        </mxCell>
        <mxCell id="vxe9Pf3EhHQiJG2KMXCm-41" value="" style="endArrow=none;html=1;rounded=0;entryX=0.45;entryY=1.043;entryDx=0;entryDy=0;exitX=1;exitY=0;exitDx=0;exitDy=0;entryPerimeter=0;" parent="1" source="vxe9Pf3EhHQiJG2KMXCm-59" target="vxe9Pf3EhHQiJG2KMXCm-7" edge="1">
          <mxGeometry width="50" height="50" relative="1" as="geometry">
            <mxPoint x="513.1199999999999" y="1567.99" as="sourcePoint" />
            <mxPoint x="528.1199999999999" y="1443.7199999999998" as="targetPoint" />
          </mxGeometry>
        </mxCell>
        <mxCell id="vxe9Pf3EhHQiJG2KMXCm-42" value="" style="endArrow=none;html=1;rounded=0;entryX=0.25;entryY=1;entryDx=0;entryDy=0;exitX=0.937;exitY=-0.038;exitDx=0;exitDy=0;entryPerimeter=0;exitPerimeter=0;" parent="1" source="vxe9Pf3EhHQiJG2KMXCm-59" target="vxe9Pf3EhHQiJG2KMXCm-2" edge="1">
          <mxGeometry width="50" height="50" relative="1" as="geometry">
            <mxPoint x="435" y="1447" as="sourcePoint" />
            <mxPoint x="565.0000000000027" y="1372" as="targetPoint" />
          </mxGeometry>
        </mxCell>
        <mxCell id="vxe9Pf3EhHQiJG2KMXCm-43" value="" style="endArrow=none;html=1;rounded=0;entryX=0;entryY=0.5;entryDx=0;entryDy=0;exitX=0.925;exitY=0.033;exitDx=0;exitDy=0;exitPerimeter=0;" parent="1" source="vxe9Pf3EhHQiJG2KMXCm-59" target="vxe9Pf3EhHQiJG2KMXCm-5" edge="1">
          <mxGeometry width="50" height="50" relative="1" as="geometry">
            <mxPoint x="445" y="1457" as="sourcePoint" />
            <mxPoint x="575.0000000000027" y="1382" as="targetPoint" />
          </mxGeometry>
        </mxCell>
        <mxCell id="vxe9Pf3EhHQiJG2KMXCm-44" value="Dropdown1" style="ellipse;whiteSpace=wrap;html=1;" parent="1" vertex="1">
          <mxGeometry x="239" y="1352" width="80" height="40" as="geometry" />
        </mxCell>
        <mxCell id="vxe9Pf3EhHQiJG2KMXCm-45" value="Q1" style="ellipse;whiteSpace=wrap;html=1;" parent="1" vertex="1">
          <mxGeometry x="185" y="1302" width="80" height="40" as="geometry" />
        </mxCell>
        <mxCell id="vxe9Pf3EhHQiJG2KMXCm-46" value="Q2" style="ellipse;whiteSpace=wrap;html=1;" parent="1" vertex="1">
          <mxGeometry x="195" y="1242" width="80" height="40" as="geometry" />
        </mxCell>
        <mxCell id="vxe9Pf3EhHQiJG2KMXCm-47" value="Q12" style="ellipse;whiteSpace=wrap;html=1;" parent="1" vertex="1">
          <mxGeometry x="145" y="1162" width="80" height="40" as="geometry" />
        </mxCell>
        <mxCell id="vxe9Pf3EhHQiJG2KMXCm-48" value="Q7" style="ellipse;whiteSpace=wrap;html=1;" parent="1" vertex="1">
          <mxGeometry x="239" y="1192" width="80" height="40" as="geometry" />
        </mxCell>
        <mxCell id="vxe9Pf3EhHQiJG2KMXCm-49" value="Q3" style="ellipse;whiteSpace=wrap;html=1;" parent="1" vertex="1">
          <mxGeometry x="285" y="1242" width="80" height="40" as="geometry" />
        </mxCell>
        <mxCell id="vxe9Pf3EhHQiJG2KMXCm-50" value="Id" style="ellipse;whiteSpace=wrap;html=1;" parent="1" vertex="1">
          <mxGeometry x="275" y="1292" width="80" height="40" as="geometry" />
        </mxCell>
        <mxCell id="vxe9Pf3EhHQiJG2KMXCm-51" value="Q8" style="ellipse;whiteSpace=wrap;html=1;" parent="1" vertex="1">
          <mxGeometry x="325" y="1192" width="80" height="40" as="geometry" />
        </mxCell>
        <mxCell id="vxe9Pf3EhHQiJG2KMXCm-52" value="Dropdown2" style="ellipse;whiteSpace=wrap;html=1;" parent="1" vertex="1">
          <mxGeometry x="365" y="1272" width="80" height="40" as="geometry" />
        </mxCell>
        <mxCell id="vxe9Pf3EhHQiJG2KMXCm-53" value="Badge" style="ellipse;whiteSpace=wrap;html=1;" parent="1" vertex="1">
          <mxGeometry x="355" y="1322" width="80" height="40" as="geometry" />
        </mxCell>
        <mxCell id="vxe9Pf3EhHQiJG2KMXCm-54" value="Q4" style="ellipse;whiteSpace=wrap;html=1;" parent="1" vertex="1">
          <mxGeometry x="385" y="1222" width="80" height="40" as="geometry" />
        </mxCell>
        <mxCell id="vxe9Pf3EhHQiJG2KMXCm-55" value="Name" style="ellipse;whiteSpace=wrap;html=1;" parent="1" vertex="1">
          <mxGeometry x="445" y="1292" width="80" height="40" as="geometry" />
        </mxCell>
        <mxCell id="vxe9Pf3EhHQiJG2KMXCm-56" value="Department" style="ellipse;whiteSpace=wrap;html=1;" parent="1" vertex="1">
          <mxGeometry x="455" y="1352" width="80" height="40" as="geometry" />
        </mxCell>
        <mxCell id="vxe9Pf3EhHQiJG2KMXCm-57" value="Q5" style="ellipse;whiteSpace=wrap;html=1;" parent="1" vertex="1">
          <mxGeometry x="465" y="1242" width="80" height="40" as="geometry" />
        </mxCell>
        <mxCell id="vxe9Pf3EhHQiJG2KMXCm-58" value="Q6" style="ellipse;whiteSpace=wrap;html=1;" parent="1" vertex="1">
          <mxGeometry x="535" y="1282" width="80" height="40" as="geometry" />
        </mxCell>
        <mxCell id="vxe9Pf3EhHQiJG2KMXCm-59" value="FormQuestionnaire" style="rounded=0;whiteSpace=wrap;html=1;" parent="1" vertex="1">
          <mxGeometry x="335" y="1437" width="120" height="30" as="geometry" />
        </mxCell>
        <mxCell id="vxe9Pf3EhHQiJG2KMXCm-60" value="User" style="rounded=0;whiteSpace=wrap;html=1;" parent="1" vertex="1">
          <mxGeometry x="356" y="1691" width="80" height="30" as="geometry" />
        </mxCell>
        <mxCell id="vxe9Pf3EhHQiJG2KMXCm-61" value="Email" style="ellipse;whiteSpace=wrap;html=1;" parent="1" vertex="1">
          <mxGeometry x="270" y="1612" width="80" height="40" as="geometry" />
        </mxCell>
        <mxCell id="vxe9Pf3EhHQiJG2KMXCm-62" value="" style="endArrow=none;html=1;rounded=0;exitX=0;exitY=0.5;exitDx=0;exitDy=0;entryX=0.5;entryY=1;entryDx=0;entryDy=0;" parent="1" source="vxe9Pf3EhHQiJG2KMXCm-60" target="vxe9Pf3EhHQiJG2KMXCm-66" edge="1">
          <mxGeometry width="50" height="50" relative="1" as="geometry">
            <mxPoint x="475" y="1852" as="sourcePoint" />
            <mxPoint x="525" y="1802" as="targetPoint" />
          </mxGeometry>
        </mxCell>
        <mxCell id="vxe9Pf3EhHQiJG2KMXCm-63" value="" style="endArrow=none;html=1;rounded=0;entryX=0.5;entryY=1;entryDx=0;entryDy=0;exitX=0.25;exitY=0;exitDx=0;exitDy=0;" parent="1" source="vxe9Pf3EhHQiJG2KMXCm-60" target="vxe9Pf3EhHQiJG2KMXCm-61" edge="1">
          <mxGeometry width="50" height="50" relative="1" as="geometry">
            <mxPoint x="374" y="1689" as="sourcePoint" />
            <mxPoint x="375" y="1632" as="targetPoint" />
          </mxGeometry>
        </mxCell>
        <mxCell id="vxe9Pf3EhHQiJG2KMXCm-64" value="" style="endArrow=none;html=1;rounded=0;entryX=0.295;entryY=0.981;entryDx=0;entryDy=0;entryPerimeter=0;exitX=0.75;exitY=0;exitDx=0;exitDy=0;" parent="1" source="vxe9Pf3EhHQiJG2KMXCm-60" target="vxe9Pf3EhHQiJG2KMXCm-65" edge="1">
          <mxGeometry width="50" height="50" relative="1" as="geometry">
            <mxPoint x="405" y="1682" as="sourcePoint" />
            <mxPoint x="385" y="1642" as="targetPoint" />
          </mxGeometry>
        </mxCell>
        <mxCell id="vxe9Pf3EhHQiJG2KMXCm-65" value="WindowsAccount" style="ellipse;whiteSpace=wrap;html=1;" parent="1" vertex="1">
          <mxGeometry x="435" y="1612" width="100" height="40" as="geometry" />
        </mxCell>
        <mxCell id="vxe9Pf3EhHQiJG2KMXCm-66" value="Id" style="ellipse;whiteSpace=wrap;html=1;" parent="1" vertex="1">
          <mxGeometry x="201" y="1662" width="80" height="40" as="geometry" />
        </mxCell>
        <mxCell id="vxe9Pf3EhHQiJG2KMXCm-67" value="" style="endArrow=none;html=1;rounded=0;entryX=0.5;entryY=1;entryDx=0;entryDy=0;" parent="1" source="vxe9Pf3EhHQiJG2KMXCm-60" target="vxe9Pf3EhHQiJG2KMXCm-68" edge="1">
          <mxGeometry width="50" height="50" relative="1" as="geometry">
            <mxPoint x="405" y="1702" as="sourcePoint" />
            <mxPoint x="485" y="1852" as="targetPoint" />
          </mxGeometry>
        </mxCell>
        <mxCell id="vxe9Pf3EhHQiJG2KMXCm-68" value="HakUser" style="ellipse;whiteSpace=wrap;html=1;" parent="1" vertex="1">
          <mxGeometry x="485" y="1662" width="80" height="40" as="geometry" />
        </mxCell>
        <mxCell id="vxe9Pf3EhHQiJG2KMXCm-69" value="" style="endArrow=none;html=1;rounded=0;entryX=0;entryY=0.5;entryDx=0;entryDy=0;exitX=1;exitY=0.5;exitDx=0;exitDy=0;" parent="1" source="vxe9Pf3EhHQiJG2KMXCm-59" target="vxe9Pf3EhHQiJG2KMXCm-70" edge="1">
          <mxGeometry width="50" height="50" relative="1" as="geometry">
            <mxPoint x="455" y="1457" as="sourcePoint" />
            <mxPoint x="585" y="1447" as="targetPoint" />
          </mxGeometry>
        </mxCell>
        <mxCell id="vxe9Pf3EhHQiJG2KMXCm-70" value="Menarik data" style="rhombus;whiteSpace=wrap;html=1;" parent="1" vertex="1">
          <mxGeometry x="565" y="1437" width="110" height="35" as="geometry" />
        </mxCell>
        <mxCell id="vxe9Pf3EhHQiJG2KMXCm-71" value="" style="endArrow=none;html=1;rounded=0;exitX=1;exitY=0.5;exitDx=0;exitDy=0;" parent="1" source="vxe9Pf3EhHQiJG2KMXCm-70" edge="1">
          <mxGeometry width="50" height="50" relative="1" as="geometry">
            <mxPoint x="685" y="1453" as="sourcePoint" />
            <mxPoint x="765" y="1453" as="targetPoint" />
          </mxGeometry>
        </mxCell>
        <mxCell id="vxe9Pf3EhHQiJG2KMXCm-76" style="edgeStyle=orthogonalEdgeStyle;rounded=0;orthogonalLoop=1;jettySize=auto;html=1;exitX=0.5;exitY=1;exitDx=0;exitDy=0;" parent="1" source="vxe9Pf3EhHQiJG2KMXCm-72" target="vxe9Pf3EhHQiJG2KMXCm-72" edge="1">
          <mxGeometry relative="1" as="geometry">
            <mxPoint x="395" y="1589" as="targetPoint" />
          </mxGeometry>
        </mxCell>
        <mxCell id="vxe9Pf3EhHQiJG2KMXCm-72" value="Mengolah data" style="rhombus;whiteSpace=wrap;html=1;" parent="1" vertex="1">
          <mxGeometry x="337.5" y="1554" width="115" height="43" as="geometry" />
        </mxCell>
        <mxCell id="vxe9Pf3EhHQiJG2KMXCm-74" value="" style="endArrow=none;html=1;rounded=0;entryX=0.5;entryY=1;entryDx=0;entryDy=0;" parent="1" source="vxe9Pf3EhHQiJG2KMXCm-72" target="vxe9Pf3EhHQiJG2KMXCm-59" edge="1">
          <mxGeometry width="50" height="50" relative="1" as="geometry">
            <mxPoint x="405" y="1702" as="sourcePoint" />
            <mxPoint x="405" y="1582" as="targetPoint" />
          </mxGeometry>
        </mxCell>
        <mxCell id="vxe9Pf3EhHQiJG2KMXCm-75" value="Q15" style="ellipse;whiteSpace=wrap;html=1;" parent="1" vertex="1">
          <mxGeometry x="425" y="1142" width="80" height="40" as="geometry" />
        </mxCell>
        <mxCell id="vxe9Pf3EhHQiJG2KMXCm-77" value="" style="endArrow=none;html=1;rounded=0;entryX=0.5;entryY=1;entryDx=0;entryDy=0;exitX=0.5;exitY=0;exitDx=0;exitDy=0;" parent="1" source="vxe9Pf3EhHQiJG2KMXCm-60" target="vxe9Pf3EhHQiJG2KMXCm-72" edge="1">
          <mxGeometry width="50" height="50" relative="1" as="geometry">
            <mxPoint x="389.67" y="1694" as="sourcePoint" />
            <mxPoint x="389.67" y="1607" as="targetPoint" />
          </mxGeometry>
        </mxCell>
        <mxCell id="vxe9Pf3EhHQiJG2KMXCm-78" value="" style="endArrow=none;html=1;rounded=0;entryX=0;entryY=0.5;entryDx=0;entryDy=0;fontSize=14;" parent="1" source="6LsR8xv4Y1xSTp8uO4PH-88" target="6LsR8xv4Y1xSTp8uO4PH-1" edge="1">
          <mxGeometry width="50" height="50" relative="1" as="geometry">
            <mxPoint x="480" y="519.9999999999998" as="sourcePoint" />
            <mxPoint x="597" y="519.9999999999998" as="targetPoint" />
          </mxGeometry>
        </mxCell>
        <mxCell id="or5e-U-CL2Dvxw6Bvm_k-1" value="1" style="edgeLabel;html=1;align=center;verticalAlign=middle;resizable=0;points=[];" parent="vxe9Pf3EhHQiJG2KMXCm-78" vertex="1" connectable="0">
          <mxGeometry x="0.3211" relative="1" as="geometry">
            <mxPoint as="offset" />
          </mxGeometry>
        </mxCell>
        <mxCell id="vxe9Pf3EhHQiJG2KMXCm-79" value="" style="endArrow=none;html=1;rounded=0;entryX=1;entryY=1;entryDx=0;entryDy=0;fontSize=14;" parent="1" source="6LsR8xv4Y1xSTp8uO4PH-77" target="6LsR8xv4Y1xSTp8uO4PH-78" edge="1">
          <mxGeometry width="50" height="50" relative="1" as="geometry">
            <mxPoint x="395" y="743.5" as="sourcePoint" />
            <mxPoint x="281" y="736.5" as="targetPoint" />
          </mxGeometry>
        </mxCell>
        <mxCell id="nCD1tIEkN5XggYw5iPlA-3" value="1" style="endArrow=none;html=1;rounded=0;fontSize=14;entryX=0.5;entryY=1;entryDx=0;entryDy=0;exitX=0.5;exitY=0;exitDx=0;exitDy=0;" parent="1" source="6LsR8xv4Y1xSTp8uO4PH-77" target="6LsR8xv4Y1xSTp8uO4PH-90" edge="1">
          <mxGeometry width="50" height="50" relative="1" as="geometry">
            <mxPoint x="405.77" y="730.5" as="sourcePoint" />
            <mxPoint x="410" y="660" as="targetPoint" />
          </mxGeometry>
        </mxCell>
        <mxCell id="nCD1tIEkN5XggYw5iPlA-4" style="edgeStyle=none;rounded=0;orthogonalLoop=1;jettySize=auto;html=1;exitX=1;exitY=0.25;exitDx=0;exitDy=0;" parent="1" source="nCD1tIEkN5XggYw5iPlA-5" edge="1">
          <mxGeometry relative="1" as="geometry">
            <mxPoint x="395" y="1840" as="targetPoint" />
          </mxGeometry>
        </mxCell>
        <mxCell id="nCD1tIEkN5XggYw5iPlA-5" value="&lt;p style=&quot;margin:0px;margin-top:4px;text-align:center;&quot;&gt;&lt;b&gt;User&lt;/b&gt;&lt;/p&gt;&lt;hr size=&quot;1&quot;&gt;&lt;p style=&quot;margin:0px;margin-left:4px;&quot;&gt;&lt;span style=&quot;background-color: initial;&quot;&gt;- ID : int&lt;/span&gt;&lt;/p&gt;&lt;p style=&quot;margin:0px;margin-left:4px;&quot;&gt;- Email : varchar&lt;br&gt;- WindowsAccount : varchar&lt;/p&gt;&lt;p style=&quot;margin:0px;margin-left:4px;&quot;&gt;&lt;span style=&quot;background-color: initial;&quot;&gt;- HakUser : varchar&lt;/span&gt;&lt;/p&gt;&lt;p style=&quot;margin:0px;margin-left:4px;&quot;&gt;&lt;br&gt;&lt;/p&gt;&lt;hr size=&quot;1&quot;&gt;&lt;p style=&quot;margin:0px;margin-left:4px;&quot;&gt;+ input()&lt;/p&gt;&lt;p style=&quot;margin:0px;margin-left:4px;&quot;&gt;+ update()&lt;br&gt;&lt;/p&gt;&lt;p style=&quot;margin:0px;margin-left:4px;&quot;&gt;+ delete()&lt;br&gt;&lt;/p&gt;" style="verticalAlign=top;align=left;overflow=fill;fontSize=12;fontFamily=Helvetica;html=1;labelBorderColor=default;strokeWidth=0;" parent="1" vertex="1">
          <mxGeometry x="65" y="1795" width="200" height="180" as="geometry" />
        </mxCell>
        <mxCell id="nCD1tIEkN5XggYw5iPlA-6" style="edgeStyle=none;rounded=0;orthogonalLoop=1;jettySize=auto;html=1;entryX=0.917;entryY=0.095;entryDx=0;entryDy=0;entryPerimeter=0;" parent="1" target="nCD1tIEkN5XggYw5iPlA-8" edge="1">
          <mxGeometry relative="1" as="geometry">
            <mxPoint x="765" y="1841" as="sourcePoint" />
          </mxGeometry>
        </mxCell>
        <mxCell id="nCD1tIEkN5XggYw5iPlA-7" value="&lt;p style=&quot;margin:0px;margin-top:4px;text-align:center;&quot;&gt;&lt;b&gt;GMDS&lt;/b&gt;&lt;/p&gt;&lt;hr size=&quot;1&quot;&gt;&lt;p style=&quot;margin:0px;margin-left:4px;&quot;&gt;&lt;span style=&quot;background-color: initial;&quot;&gt;- BadgeId : int&lt;/span&gt;&lt;/p&gt;&lt;p style=&quot;margin:0px;margin-left:4px;&quot;&gt;- Name : varchar&lt;br&gt;- Department : varchar&lt;/p&gt;&lt;p style=&quot;margin:0px;margin-left:4px;&quot;&gt;&lt;span style=&quot;background-color: initial;&quot;&gt;- Email : varchar&lt;/span&gt;&lt;/p&gt;&lt;p style=&quot;margin:0px;margin-left:4px;&quot;&gt;&lt;br&gt;&lt;/p&gt;&lt;hr size=&quot;1&quot;&gt;&lt;p style=&quot;margin:0px;margin-left:4px;&quot;&gt;+ get()&lt;/p&gt;" style="verticalAlign=top;align=left;overflow=fill;fontSize=12;fontFamily=Helvetica;html=1;labelBorderColor=default;strokeWidth=0;" parent="1" vertex="1">
          <mxGeometry x="745" y="1795" width="200" height="180" as="geometry" />
        </mxCell>
        <mxCell id="nCD1tIEkN5XggYw5iPlA-8" value="&lt;p style=&quot;margin:0px;margin-top:4px;text-align:center;&quot;&gt;&lt;b&gt;FormQuestionnaire&lt;/b&gt;&lt;/p&gt;&lt;hr size=&quot;1&quot;&gt;&lt;p style=&quot;margin:0px;margin-left:4px;&quot;&gt;&lt;span style=&quot;background-color: initial;&quot;&gt;- ID : int&lt;/span&gt;&lt;/p&gt;&lt;p style=&quot;margin:0px;margin-left:4px;&quot;&gt;- Badge : varchar&lt;br&gt;- Department : varchar&lt;/p&gt;&lt;p style=&quot;margin:0px;margin-left:4px;&quot;&gt;&lt;span style=&quot;background-color: initial;&quot;&gt;- Dropdown1 : varchar&lt;/span&gt;&lt;/p&gt;&lt;p style=&quot;margin:0px;margin-left:4px;&quot;&gt;- Dropdown2 : varchar&lt;span style=&quot;background-color: initial;&quot;&gt;&lt;br&gt;&lt;/span&gt;&lt;/p&gt;&lt;p style=&quot;margin:0px;margin-left:4px;&quot;&gt;- Q1 : varchar&lt;br&gt;&lt;/p&gt;&lt;p style=&quot;margin:0px;margin-left:4px;&quot;&gt;- Q2 : varchar&lt;br&gt;&lt;/p&gt;&lt;p style=&quot;margin:0px;margin-left:4px;&quot;&gt;- Q3 : varchar&lt;br&gt;&lt;/p&gt;&lt;p style=&quot;margin:0px;margin-left:4px;&quot;&gt;- Q4 : varchar&lt;br&gt;&lt;/p&gt;&lt;p style=&quot;margin:0px;margin-left:4px;&quot;&gt;- Q5 : varchar&lt;br&gt;&lt;/p&gt;&lt;p style=&quot;margin:0px;margin-left:4px;&quot;&gt;- Q6 : varchar&lt;br&gt;&lt;/p&gt;&lt;p style=&quot;margin:0px;margin-left:4px;&quot;&gt;- Q7 : varchar&lt;br&gt;&lt;/p&gt;&lt;p style=&quot;margin:0px;margin-left:4px;&quot;&gt;- Q8 : varchar&lt;br&gt;&lt;/p&gt;&lt;p style=&quot;margin:0px;margin-left:4px;&quot;&gt;- Q9 : varchar&lt;br&gt;&lt;/p&gt;&lt;p style=&quot;margin:0px;margin-left:4px;&quot;&gt;- Q10 : varchar&lt;br&gt;&lt;/p&gt;&lt;p style=&quot;margin:0px;margin-left:4px;&quot;&gt;- Q11 : varchar&lt;br&gt;&lt;/p&gt;&lt;p style=&quot;margin:0px;margin-left:4px;&quot;&gt;- Q12 : varchar&lt;br&gt;&lt;/p&gt;&lt;p style=&quot;margin:0px;margin-left:4px;&quot;&gt;- Q13 : varchar&lt;br&gt;&lt;/p&gt;&lt;p style=&quot;margin:0px;margin-left:4px;&quot;&gt;- Q14 : varchar&lt;br&gt;&lt;/p&gt;&lt;p style=&quot;margin:0px;margin-left:4px;&quot;&gt;- Q15 : varchar&lt;br&gt;&lt;/p&gt;&lt;p style=&quot;margin:0px;margin-left:4px;&quot;&gt;- Q16 : varchar&lt;br&gt;&lt;/p&gt;&lt;p style=&quot;margin:0px;margin-left:4px;&quot;&gt;- Q17 : varchar&lt;br&gt;&lt;/p&gt;&lt;p style=&quot;margin:0px;margin-left:4px;&quot;&gt;- Q18 : varchar&lt;br&gt;&lt;/p&gt;&lt;p style=&quot;margin:0px;margin-left:4px;&quot;&gt;- Q19 : varchar&lt;br&gt;&lt;/p&gt;&lt;p style=&quot;margin:0px;margin-left:4px;&quot;&gt;- Q20 : varchar&lt;br&gt;&lt;/p&gt;&lt;p style=&quot;margin:0px;margin-left:4px;&quot;&gt;&lt;br&gt;&lt;/p&gt;&lt;hr size=&quot;1&quot;&gt;&lt;p style=&quot;margin: 0px 0px 0px 4px;&quot;&gt;+ input()&lt;/p&gt;&lt;p style=&quot;margin: 0px 0px 0px 4px;&quot;&gt;+ update()&lt;br&gt;&lt;/p&gt;&lt;p style=&quot;margin: 0px 0px 0px 4px;&quot;&gt;+ delet()&lt;/p&gt;" style="verticalAlign=top;align=left;overflow=fill;fontSize=12;fontFamily=Helvetica;html=1;labelBorderColor=default;strokeWidth=0;" parent="1" vertex="1">
          <mxGeometry x="385" y="1795" width="240" height="480" as="geometry" />
        </mxCell>
        <mxCell id="nCD1tIEkN5XggYw5iPlA-9" value="1..1" style="text;strokeColor=none;fillColor=none;html=1;align=center;verticalAlign=middle;whiteSpace=wrap;rounded=0;fontSize=16;" parent="1" vertex="1">
          <mxGeometry x="681" y="1822" width="10" height="10" as="geometry" />
        </mxCell>
        <mxCell id="nCD1tIEkN5XggYw5iPlA-11" value="1..1" style="text;strokeColor=none;fillColor=none;html=1;align=center;verticalAlign=middle;whiteSpace=wrap;rounded=0;fontSize=16;" parent="1" vertex="1">
          <mxGeometry x="315" y="1822" width="10" height="10" as="geometry" />
        </mxCell>
      </root>
    </mxGraphModel>
  </diagram>
</mxfile>
